<svg xmlns="http://www.w3.org/2000/svg" viewBox="0 0 640 480" version="1.1" id="Map" stroke-width="0.5px"><g id="UserTransform"><g id="TransformMap" style="r: 1;"><path xmlns="" id="E135136" d="M 282.49414266306127 97.96806428359618 269.40205942008146 95.72308643232748"/><path xmlns="" id="E134135" d="M 296.01464826396716 111.5664984033954 282.49414266306127 97.96806428359618"/><path xmlns="" id="E133134" d="M 287.35799649496835 123.50345111758105 296.01464826396716 111.5664984033954"/><path xmlns="" id="E132135" d="M 304.78470595176725 112.06098691629326 282.49414266306127 97.96806428359618"/><path xmlns="" id="E132134" d="M 304.78470595176725 112.06098691629326 296.01464826396716 111.5664984033954"/><path xmlns="" id="E132133" d="M 304.78470595176725 112.06098691629326 287.35799649496835 123.50345111758105"/><path xmlns="" id="E128129" d="M 227.9836978997207 148.9597197898958 227.45447027984204 143.56979499291452"/><path xmlns="" id="E127129" d="M 232.84755173162782 151.8178633972703 227.45447027984204 143.56979499291452"/><path xmlns="" id="E126129" d="M 273.8374908940624 165.83166786829722 227.45447027984204 143.56979499291452"/><path xmlns="" id="E126128" d="M 273.8374908940624 165.83166786829722 227.9836978997207 148.9597197898958"/><path xmlns="" id="E126127" d="M 273.8374908940624 165.83166786829722 232.84755173162782 151.8178633972703"/><path xmlns="" id="E125126" d="M 335.4295052271959 135.15360049413138 273.8374908940624 165.83166786829722"/><path xmlns="" id="E124132" d="M 334.68606642835414 129.84279386022567 304.78470595176725 112.06098691629326"/><path xmlns="" id="E124126" d="M 334.68606642835414 129.84279386022567 273.8374908940624 165.83166786829722"/><path xmlns="" id="E124125" d="M 334.68606642835414 129.84279386022567 335.4295052271959 135.15360049413138"/><path xmlns="" id="E122123" d="M 83.78177236167758 174.45554754304558 128.99293181913006 216.8233233745968"/><path xmlns="" id="E120121" d="M 0.42842235792615346 173.0413103942323 0 167.74039353000836"/><path xmlns="" id="E119121" d="M 6.552341949914253 167.07777892198035 0 167.74039353000836"/><path xmlns="" id="E118122" d="M 48.81494752927858 154.97270011336727 83.78177236167758 174.45554754304558"/><path xmlns="" id="E117121" d="M 40.04488984326918 149.66189347875886 0 167.74039353000836"/><path xmlns="" id="E117120" d="M 40.04488984326918 149.66189347875886 0.42842235792615346 173.0413103942323"/><path xmlns="" id="E117119" d="M 40.04488984326918 149.66189347875886 6.552341949914253 167.07777892198035"/><path xmlns="" id="E117118" d="M 40.04488984326918 149.66189347875886 48.81494752927858 154.97270011336727"/><path xmlns="" id="E116121" d="M 32.53489791555012 149.75090141151617 0 167.74039353000836"/><path xmlns="" id="E116117" d="M 32.53489791555012 149.75090141151617 40.04488984326918 149.66189347875886"/><path xmlns="" id="E115117" d="M 58.000826918156065 138.55568146702862 40.04488984326918 149.66189347875886"/><path xmlns="" id="E113114" d="M 15.851627257592968 100.07458535088809 9.929318185928551 98.83836406688668"/><path xmlns="" id="E112117" d="M 70.3620720209335 125.78798804968484 40.04488984326918 149.66189347875886"/><path xmlns="" id="E112116" d="M 70.3620720209335 125.78798804968484 32.53489791555012 149.75090141151617"/><path xmlns="" id="E112115" d="M 70.3620720209335 125.78798804968484 58.000826918156065 138.55568146702862"/><path xmlns="" id="E112114" d="M 70.3620720209335 125.78798804968484 9.929318185928551 98.83836406688668"/><path xmlns="" id="E112113" d="M 70.3620720209335 125.78798804968484 15.851627257592968 100.07458535088809"/><path xmlns="" id="E111113" d="M 75.01171467387752 123.2166477799457 15.851627257592968 100.07458535088809"/><path xmlns="" id="E111112" d="M 75.01171467387752 123.2166477799457 70.3620720209335 125.78798804968484"/><path xmlns="" id="E110118" d="M 76.27178043395853 128.39888740096174 48.81494752927858 154.97270011336727"/><path xmlns="" id="E110112" d="M 76.27178043395853 128.39888740096174 70.3620720209335 125.78798804968484"/><path xmlns="" id="E110111" d="M 76.27178043395853 128.39888740096174 75.01171467387752 123.2166477799457"/><path xmlns="" id="E109110" d="M 132.69752515290867 95.02091274346441 76.27178043395853 128.39888740096174"/><path xmlns="" id="E108109" d="M 124.65830560531094 94.11105387863611 132.69752515290867 95.02091274346441"/><path xmlns="" id="E106109" d="M 122.75560630834072 87.89038837919944 132.69752515290867 95.02091274346441"/><path xmlns="" id="E106108" d="M 122.75560630834072 87.89038837919944 124.65830560531094 94.11105387863611"/><path xmlns="" id="E106107" d="M 122.75560630834072 87.89038837919944 135.11685141111815 84.99268569028717"/><path xmlns="" id="E105106" d="M 89.47726959573953 73.21396930014451 122.75560630834072 87.89038837919944"/><path xmlns="" id="E104106" d="M 89.27565907362519 68.23941485509367 122.75560630834072 87.89038837919944"/><path xmlns="" id="E104105" d="M 89.27565907362519 68.23941485509367 89.47726959573953 73.21396930014451"/><path xmlns="" id="E103104" d="M 104.38384753237642 58.87380241064715 89.27565907362519 68.23941485509367"/><path xmlns="" id="E102107" d="M 137.1329566268896 78.35664984032549 135.11685141111815 84.99268569028717"/><path xmlns="" id="E102106" d="M 137.1329566268896 78.35664984032549 122.75560630834072 87.89038837919944"/><path xmlns="" id="E102103" d="M 137.1329566268896 78.35664984032549 104.38384753237642 58.87380241064715"/><path xmlns="" id="E101102" d="M 147.59150243090616 79.85000515080891 137.1329566268896 78.35664984032549"/><path xmlns="" id="E100109" d="M 148.43574648990972 85.07180385266003 132.69752515290867 95.02091274346441"/><path xmlns="" id="E100102" d="M 148.43574648990972 85.07180385266003 137.1329566268896 78.35664984032549"/><path xmlns="" id="E100101" d="M 148.43574648990972 85.07180385266003 147.59150243090616 79.85000515080891"/><path xmlns="" id="E99136" d="M 231.78909649366116 65.83620067978198 269.40205942008146 95.72308643232748"/><path xmlns="" id="E99135" d="M 231.78909649366116 65.83620067978198 282.49414266306127 97.96806428359618"/><path xmlns="" id="E99100" d="M 231.78909649366116 65.83620067978198 148.43574648990972 85.07180385266003"/><path xmlns="" id="E98099" d="M 210.4435825241206 44.691871845192786 231.78909649366116 65.83620067978198"/><path xmlns="" id="E97099" d="M 230.30221889776837 34.327392603160696 231.78909649366116 65.83620067978198"/><path xmlns="" id="E96099" d="M 238.656454884491 28.27485319885415 231.78909649366116 65.83620067978198"/><path xmlns="" id="E95099" d="M 264.75241676713745 22.96404656424574 231.78909649366116 65.83620067978198"/><path xmlns="" id="E95098" d="M 264.75241676713745 22.96404656424574 210.4435825241206 44.691871845192786"/><path xmlns="" id="E95097" d="M 264.75241676713745 22.96404656424574 230.30221889776837 34.327392603160696"/><path xmlns="" id="E95096" d="M 264.75241676713745 22.96404656424574 238.656454884491 28.27485319885415"/><path xmlns="" id="E93094" d="M 350.7393042080614 3.9756876481679733 348.42078321001384 0"/><path xmlns="" id="E92094" d="M 345.8880510330031 6.883280106761972 348.42078321001384 0"/><path xmlns="" id="E91095" d="M 327.07526924047323 14.587411146297637 264.75241676713745 22.96404656424574"/><path xmlns="" id="E91094" d="M 327.07526924047323 14.587411146297637 348.42078321001384 0"/><path xmlns="" id="E91093" d="M 327.07526924047323 14.587411146297637 350.7393042080614 3.9756876481679733"/><path xmlns="" id="E91092" d="M 327.07526924047323 14.587411146297637 345.8880510330031 6.883280106761972"/><path xmlns="" id="E89091" d="M 358.56431257490544 33.417533738332416 327.07526924047323 14.587411146297637"/><path xmlns="" id="E89090" d="M 358.56431257490544 33.417533738332416 388.5664783134448 14.844545173482363"/><path xmlns="" id="E87089" d="M 362.47051643079834 38.144843927285685 358.56431257490544 33.417533738332416"/><path xmlns="" id="E87088" d="M 362.47051643079834 38.144843927285685 359.5093618940708 41.78427938589608"/><path xmlns="" id="E86087" d="M 365.11665452481964 42.041413413080804 362.47051643079834 38.144843927285685"/><path xmlns="" id="E85135" d="M 363.52897166876505 49.33017410138876 282.49414266306127 97.96806428359618"/><path xmlns="" id="E85088" d="M 363.52897166876505 49.33017410138876 359.5093618940708 41.78427938589608"/><path xmlns="" id="E85087" d="M 363.52897166876505 49.33017410138876 362.47051643079834 38.144843927285685"/><path xmlns="" id="E84088" d="M 372.2990293547744 43.940249304407494 359.5093618940708 41.78427938589608"/><path xmlns="" id="E84087" d="M 372.2990293547744 43.940249304407494 362.47051643079834 38.144843927285685"/><path xmlns="" id="E84086" d="M 372.2990293547744 43.940249304407494 365.11665452481964 42.041413413080804"/><path xmlns="" id="E84085" d="M 372.2990293547744 43.940249304407494 363.52897166876505 49.33017410138876"/><path xmlns="" id="E82083" d="M 406.9508377462579 38.4712063457561 413.6039849581246 39.964561656239525"/><path xmlns="" id="E81084" d="M 387.7222342544412 53.483877613665896 372.2990293547744 43.940249304407494"/><path xmlns="" id="E81083" d="M 387.7222342544412 53.483877613665896 413.6039849581246 39.964561656239525"/><path xmlns="" id="E81082" d="M 387.7222342544412 53.483877613665896 406.9508377462579 38.4712063457561"/><path xmlns="" id="E79081" d="M 464.42243704632585 95.35716493231928 387.7222342544412 53.483877613665896"/><path xmlns="" id="E79080" d="M 464.42243704632585 95.35716493231928 450.68772026466627 98.04718244526632"/><path xmlns="" id="E77078" d="M 499.275855958133 89.63098794648315 503.72388809075335 87.1486556095013"/><path xmlns="" id="E76079" d="M 484.8103010380617 98.67023797245925 464.42243704632585 95.35716493231928"/><path xmlns="" id="E76078" d="M 484.8103010380617 98.67023797245925 503.72388809075335 87.1486556095013"/><path xmlns="" id="E76077" d="M 484.8103010380617 98.67023797245925 499.275855958133 89.63098794648315"/><path xmlns="" id="E74076" d="M 521.0497922855998 120.81343360463401 484.8103010380617 98.67023797245925"/><path xmlns="" id="E74075" d="M 521.0497922855998 120.81343360463401 530.0214604955141 108.12485834966306"/><path xmlns="" id="E73074" d="M 509.6335965037784 122.46502523916041 521.0497922855998 120.81343360463401"/><path xmlns="" id="E71072" d="M 555.7016006770832 212.18502111840084 622.144868185275 238.30390439874358"/><path xmlns="" id="E69071" d="M 595.8346951236654 172.3786957862043 555.7016006770832 212.18502111840084"/><path xmlns="" id="E69070" d="M 595.8346951236654 172.3786957862043 640 174.45554754304558"/><path xmlns="" id="E68069" d="M 548.8342422862534 161.2724837744741 595.8346951236654 172.3786957862043"/><path xmlns="" id="E67068" d="M 534.5702978865056 157.87040280227953 548.8342422862534 161.2724837744741"/><path xmlns="" id="E66074" d="M 511.22127935983303 132.82950448119252 521.0497922855998 120.81343360463401"/><path xmlns="" id="E66068" d="M 511.22127935983303 132.82950448119252 548.8342422862534 161.2724837744741"/><path xmlns="" id="E65074" d="M 501.92199405394496 132.99763057561995 521.0497922855998 120.81343360463401"/><path xmlns="" id="E65068" d="M 501.92199405394496 132.99763057561995 548.8342422862534 161.2724837744741"/><path xmlns="" id="E65067" d="M 501.92199405394496 132.99763057561995 534.5702978865056 157.87040280227953"/><path xmlns="" id="E65066" d="M 501.92199405394496 132.99763057561995 511.22127935983303 132.82950448119252"/><path xmlns="" id="E64065" d="M 488.930716071127 135.32172658926152 501.92199405394496 132.99763057561995"/><path xmlns="" id="E62063" d="M 502.6654328527867 187.312248892444 497.80157901908893 189.87369939179868"/><path xmlns="" id="E61065" d="M 475.0825933724568 149.16740496515828 501.92199405394496 132.99763057561995"/><path xmlns="" id="E61064" d="M 475.0825933724568 149.16740496515828 488.930716071127 135.32172658926152"/><path xmlns="" id="E61063" d="M 475.0825933724568 149.16740496515828 497.80157901908893 189.87369939179868"/><path xmlns="" id="E61062" d="M 475.0825933724568 149.16740496515828 502.6654328527867 187.312248892444"/><path xmlns="" id="E60061" d="M 455.00974582163667 161.85598022012925 475.0825933724568 149.16740496515828"/><path xmlns="" id="E59061" d="M 449.94428146761516 159.03739569358981 475.0825933724568 149.16740496515828"/><path xmlns="" id="E58061" d="M 419.09787167007215 145.02359122256289 475.0825933724568 149.16740496515828"/><path xmlns="" id="E57080" d="M 405.6781713293281 131.42515710276368 450.68772026466627 98.04718244526632"/><path xmlns="" id="E57079" d="M 405.6781713293281 131.42515710276368 464.42243704632585 95.35716493231928"/><path xmlns="" id="E57061" d="M 405.6781713293281 131.42515710276368 475.0825933724568 149.16740496515828"/><path xmlns="" id="E57060" d="M 405.6781713293281 131.42515710276368 455.00974582163667 161.85598022012925"/><path xmlns="" id="E57059" d="M 405.6781713293281 131.42515710276368 449.94428146761516 159.03739569358981"/><path xmlns="" id="E57058" d="M 405.6781713293281 131.42515710276368 419.09787167007215 145.02359122256289"/><path xmlns="" id="E56057" d="M 401.0285286763841 129.02194292745196 405.6781713293281 131.42515710276368"/><path xmlns="" id="E55057" d="M 395.5346419644365 132.08777171079166 405.6781713293281 131.42515710276368"/><path xmlns="" id="E54125" d="M 377.8937213286745 148.000412073848 335.4295052271959 135.15360049413138"/><path xmlns="" id="E54124" d="M 377.8937213286745 148.000412073848 334.68606642835414 129.84279386022567"/><path xmlns="" id="E54057" d="M 377.8937213286745 148.000412073848 405.6781713293281 131.42515710276368"/><path xmlns="" id="E54056" d="M 377.8937213286745 148.000412073848 401.0285286763841 129.02194292745196"/><path xmlns="" id="E54055" d="M 377.8937213286745 148.000412073848 395.5346419644365 132.08777171079166"/><path xmlns="" id="E53054" d="M 360.4670118718757 153.39033687012656 377.8937213286745 148.000412073848"/><path xmlns="" id="E52054" d="M 329.6206020743327 177.936746677613 377.8937213286745 148.000412073848"/><path xmlns="" id="E52053" d="M 329.6206020743327 177.936746677613 360.4670118718757 153.39033687012656"/><path xmlns="" id="E51052" d="M 341.33921364022086 189.87369939179868 329.6206020743327 177.936746677613"/><path xmlns="" id="E49050" d="M 435.2645153667901 237.05779334506045 440.7584020787377 234.16009065614818"/><path xmlns="" id="E48049" d="M 400.1842846173805 230.51076542715333 435.2645153667901 237.05779334506045"/><path xmlns="" id="E47048" d="M 414.019806659202 217.32770165858184 400.1842846173805 230.51076542715333"/><path xmlns="" id="E46048" d="M 409.38276466310674 220.14628618512126 400.1842846173805 230.51076542715333"/><path xmlns="" id="E46047" d="M 409.38276466310674 220.14628618512126 414.019806659202 217.32770165858184"/><path xmlns="" id="E45048" d="M 399.6550569975019 225.2790769549178 400.1842846173805 230.51076542715333"/><path xmlns="" id="E45046" d="M 399.6550569975019 225.2790769549178 409.38276466310674 220.14628618512126"/><path xmlns="" id="E44052" d="M 348.63499438897685 220.05727825236394 329.6206020743327 177.936746677613"/><path xmlns="" id="E44051" d="M 348.63499438897685 220.05727825236394 341.33921364022086 189.87369939179868"/><path xmlns="" id="E44048" d="M 348.63499438897685 220.05727825236394 400.1842846173805 230.51076542715333"/><path xmlns="" id="E44045" d="M 348.63499438897685 220.05727825236394 399.6550569975019 225.2790769549178"/><path xmlns="" id="E43052" d="M 352.11277588515304 223.79561141411608 329.6206020743327 177.936746677613"/><path xmlns="" id="E43048" d="M 352.11277588515304 223.79561141411608 400.1842846173805 230.51076542715333"/><path xmlns="" id="E42044" d="M 324.6433423236243 229.92726898079547 348.63499438897685 220.05727825236394"/><path xmlns="" id="E41044" d="M 311.1228367227184 243.35757700616728 348.63499438897685 220.05727825236394"/><path xmlns="" id="E41043" d="M 311.1228367227184 243.35757700616728 352.11277588515304 223.79561141411608"/><path xmlns="" id="E41042" d="M 305.52814475060893 240.8752446684827 324.6433423236243 229.92726898079547"/><path xmlns="" id="E40041" d="M 305.52814475060893 240.8752446684827 311.1228367227184 243.35757700616728"/><path xmlns="" id="E38041" d="M 254.60888740045516 244.68280622222326 311.1228367227184 243.35757700616728"/><path xmlns="" id="E38040" d="M 254.60888740045516 244.68280622222326 305.52814475060893 240.8752446684827"/><path xmlns="" id="E38039" d="M 254.60888740045516 244.68280622222326 257.98586363646945 241.20160708765584"/><path xmlns="" id="E37052" d="M 237.3837884657706 233.90295662896344 329.6206020743327 177.936746677613"/><path xmlns="" id="E37039" d="M 237.3837884657706 233.90295662896344 257.98586363646945 241.20160708765584"/><path xmlns="" id="E37038" d="M 237.3837884657706 233.90295662896344 254.60888740045516 244.68280622222326"/><path xmlns="" id="E35039" d="M 208.44007796698855 244.10919954624984 257.98586363646945 241.20160708765584"/><path xmlns="" id="E35038" d="M 208.44007796698855 244.10919954624984 254.60888740045516 244.68280622222326"/><path xmlns="" id="E35036" d="M 208.44007796698855 244.10919954624984 199.6700202791885 253.22756773459878"/><path xmlns="" id="E34037" d="M 213.30393179889563 234.4864530746186 237.3837884657706 233.90295662896344"/><path xmlns="" id="E34035" d="M 213.30393179889563 234.4864530746186 208.44007796698855 244.10919954624984"/><path xmlns="" id="E33037" d="M 204.84889055201114 233.99196456172075 237.3837884657706 233.90295662896344"/><path xmlns="" id="E33035" d="M 204.84889055201114 233.99196456172075 208.44007796698855 244.10919954624984"/><path xmlns="" id="E33034" d="M 204.84889055201114 233.99196456172075 213.30393179889563 234.4864530746186"/><path xmlns="" id="E32037" d="M 203.47541887312894 228.6020397647395 237.3837884657706 233.90295662896344"/><path xmlns="" id="E32033" d="M 203.47541887312894 228.6020397647395 204.84889055201114 233.99196456172075"/><path xmlns="" id="E31123" d="M 170.09627689857524 235.48531987220417 128.99293181913006 216.8233233745968"/><path xmlns="" id="E31033" d="M 170.09627689857524 235.48531987220417 204.84889055201114 233.99196456172075"/><path xmlns="" id="E30123" d="M 161.85544683065385 236.3160605746596 128.99293181913006 216.8233233745968"/><path xmlns="" id="E30033" d="M 161.85544683065385 236.3160605746596 204.84889055201114 233.99196456172075"/><path xmlns="" id="E30032" d="M 161.85544683065385 236.3160605746596 203.47541887312894 228.6020397647395"/><path xmlns="" id="E30031" d="M 161.85544683065385 236.3160605746596 170.09627689857524 235.48531987220417"/><path xmlns="" id="E28137" d="M 166.3916835665873 255.96703409876537 167.37453485808956 260.0218399093062"/><path xmlns="" id="E28036" d="M 166.3916835665873 255.96703409876537 199.6700202791885 253.22756773459878"/><path xmlns="" id="E28035" d="M 166.3916835665873 255.96703409876537 208.44007796698855 244.10919954624984"/><path xmlns="" id="E28031" d="M 166.3916835665873 255.96703409876537 170.09627689857524 235.48531987220417"/><path xmlns="" id="E28030" d="M 166.3916835665873 255.96703409876537 161.85544683065385 236.3160605746596"/><path xmlns="" id="E28029" d="M 166.3916835665873 255.96703409876537 159.20930873663252 254.47367878828194"/><path xmlns="" id="E27137" d="M 121.91136224933715 282.33316163590837 167.37453485808956 260.0218399093062"/><path xmlns="" id="E27029" d="M 121.91136224933715 282.33316163590837 159.20930873663252 254.47367878828194"/><path xmlns="" id="E27028" d="M 121.91136224933715 282.33316163590837 166.3916835665873 255.96703409876537"/><path xmlns="" id="E23027" d="M 73.00821011674546 311.0233851859902 121.91136224933715 282.33316163590837"/><path xmlns="" id="E23026" d="M 73.00821011674546 311.0233851859902 53.56539544417511 327.68764808842644"/><path xmlns="" id="E23025" d="M 73.00821011674546 311.0233851859902 58.215038097119134 324.86906356188706"/><path xmlns="" id="E23024" d="M 73.00821011674546 311.0233851859902 60.53355909516679 312.8431029149441"/><path xmlns="" id="E22023" d="M 110.40696186420269 350.0780879774015 73.00821011674546 311.0233851859902"/><path xmlns="" id="E21023" d="M 115.04400385850731 347.5858658700352 73.00821011674546 311.0233851859902"/><path xmlns="" id="E20023" d="M 131.52566399614076 349.40558359898904 73.00821011674546 311.0233851859902"/><path xmlns="" id="E20022" d="M 131.52566399614076 349.40558359898904 110.40696186420269 350.0780879774015"/><path xmlns="" id="E20021" d="M 131.52566399614076 349.40558359898904 115.04400385850731 347.5858658700352"/><path xmlns="" id="E19020" d="M 131.32405347402644 376.7705779330149 131.52566399614076 349.40558359898904"/><path xmlns="" id="E18019" d="M 144.73115315792177 384.81096116210813 131.32405347402644 376.7705779330149"/><path xmlns="" id="E17019" d="M 135.96109547012173 385.3944576077633 131.32405347402644 376.7705779330149"/><path xmlns="" id="E17018" d="M 135.96109547012173 385.3944576077633 144.73115315792177 384.81096116210813"/><path xmlns="" id="E12018" d="M 116.8458978953157 400.90161738927367 144.73115315792177 384.81096116210813"/><path xmlns="" id="E12017" d="M 116.8458978953157 400.90161738927367 135.96109547012173 385.3944576077633"/><path xmlns="" id="E12016" d="M 116.8458978953157 400.90161738927367 73.52483707798471 374.6146080145035"/><path xmlns="" id="E12015" d="M 116.8458978953157 400.90161738927367 89.59067551275011 422.6294426702207"/><path xmlns="" id="E12014" d="M 116.8458978953157 400.90161738927367 101.3092870786383 415.24178427877104"/><path xmlns="" id="E12013" d="M 116.8458978953157 400.90161738927367 88.9606426327096 413.3429483874443"/><path xmlns="" id="E11012" d="M 122.12557342830023 409.0310085504215 116.8458978953157 400.90161738927367"/><path xmlns="" id="E10012" d="M 124.12907798543229 414.579169670743 116.8458978953157 400.90161738927367"/><path xmlns="" id="E10011" d="M 124.12907798543229 414.579169670743 122.12557342830023 409.0310085504215"/><path xmlns="" id="E9010" d="M 177.79527869155993 425.27001133194824 124.12907798543229 414.579169670743"/><path xmlns="" id="E7009" d="M 236.75375558573012 444.920984856054 177.79527869155993 425.27001133194824"/><path xmlns="" id="E7008" d="M 236.75375558573012 444.920984856054 220.37290071004915 454.7118574221127"/><path xmlns="" id="E6007" d="M 250.6900828895041 452.8822499220717 236.75375558573012 444.920984856054"/><path xmlns="" id="E5006" d="M 259.57354649431477 458.3611826511075 250.6900828895041 452.8822499220717"/><path xmlns="" id="E4005" d="M 277.63028883115413 456.03708663816866 259.57354649431477 458.3611826511075"/><path xmlns="" id="E3005" d="M 272.6656297372945 465.81806943384294 259.57354649431477 458.3611826511075"/><path xmlns="" id="E3004" d="M 272.6656297372945 465.81806943384294 277.63028883115413 456.03708663816866"/><path xmlns="" id="E2003" d="M 290.83577799293516 473.03760173016246 272.6656297372945 465.81806943384294"/><circle xmlns="" id="N1" cx="317.8893898515957" cy="480" r="1" style="transform-origin:317.8893898515957px 480px" class="exit russEngineering"/><circle xmlns="" id="N2" cx="290.83577799293516" cy="473.03760173016246" r="1" style="transform-origin:290.83577799293516px 473.03760173016246px" class="staircase russEngineering"/><circle xmlns="" id="N3" cx="272.6656297372945" cy="465.81806943384294" r="1" style="transform-origin:272.6656297372945px 465.81806943384294px" class="elevator russEngineering"/><circle xmlns="" id="N4" cx="277.63028883115413" cy="456.03708663816866" r="1" style="transform-origin:277.63028883115413px 456.03708663816866px" class="exit russEngineering"/><circle xmlns="" id="N5" cx="259.57354649431477" cy="458.3611826511075" r="1" style="transform-origin:259.57354649431477px 458.3611826511075px" class="intersection russEngineering"/><circle xmlns="" id="N6" cx="250.6900828895041" cy="452.8822499220717" r="1" style="transform-origin:250.6900828895041px 452.8822499220717px" class="intersection russEngineering"/><circle xmlns="" id="N7" cx="236.75375558573012" cy="444.920984856054" r="1" style="transform-origin:236.75375558573012px 444.920984856054px" class="intersection joshiCenter"/><circle xmlns="" id="N8" cx="220.37290071004915" cy="454.7118574221127" r="1" style="transform-origin:220.37290071004915px 454.7118574221127px" class="exit joshiCenter"/><circle xmlns="" id="N9" cx="177.79527869155993" cy="425.27001133194824" r="1" style="transform-origin:177.79527869155993px 425.27001133194824px" class="intersection studentUnion"/><circle xmlns="" id="N10" cx="124.12907798543229" cy="414.579169670743" r="1" style="transform-origin:124.12907798543229px 414.579169670743px" class="intersection studentUnion"/><circle xmlns="" id="N11" cx="122.12557342830023" cy="409.0310085504215" r="1" style="transform-origin:122.12557342830023px 409.0310085504215px" class="elevator studentUnion"/><circle xmlns="" id="N12" cx="116.8458978953157" cy="400.90161738927367" r="1" style="transform-origin:116.8458978953157px 400.90161738927367px" class="intersection studentUnion"/><circle xmlns="" id="N13" cx="88.9606426327096" cy="413.3429483874443" r="1" style="transform-origin:88.9606426327096px 413.3429483874443px" class="elevator studentUnion"/><circle xmlns="" id="N14" cx="101.3092870786383" cy="415.24178427877104" r="1" style="transform-origin:101.3092870786383px 415.24178427877104px" class="staircase studentUnion"/><circle xmlns="" id="N15" cx="89.59067551275011" cy="422.6294426702207" r="1" style="transform-origin:89.59067551275011px 422.6294426702207px" class="staircase studentUnion"/><circle xmlns="" id="N16" cx="73.52483707798471" cy="374.6146080145035" r="1" style="transform-origin:73.52483707798471px 374.6146080145035px" class="intersection studentUnion"/><circle xmlns="" id="N17" cx="135.96109547012173" cy="385.3944576077633" r="1" style="transform-origin:135.96109547012173px 385.3944576077633px" class="staircase studentUnion"/><circle xmlns="" id="N18" cx="144.73115315792177" cy="384.81096116210813" r="1" style="transform-origin:144.73115315792177px 384.81096116210813px" class="intersection studentUnion"/><circle xmlns="" id="N19" cx="131.32405347402644" cy="376.7705779330149" r="1" style="transform-origin:131.32405347402644px 376.7705779330149px" class="intersection studentUnion"/><circle xmlns="" id="N20" cx="131.52566399614076" cy="349.40558359898904" r="1" style="transform-origin:131.52566399614076px 349.40558359898904px" class="intersection studentUnion"/><circle xmlns="" id="N21" cx="115.04400385850731" cy="347.5858658700352" r="1" style="transform-origin:115.04400385850731px 347.5858658700352px" class="elevator studentUnion"/><circle xmlns="" id="N22" cx="110.40696186420269" cy="350.0780879774015" r="1" style="transform-origin:110.40696186420269px 350.0780879774015px" class="staircase studentUnion"/><circle xmlns="" id="N23" cx="73.00821011674546" cy="311.0233851859902" r="1" style="transform-origin:73.00821011674546px 311.0233851859902px" class="intersection studentUnion"/><circle xmlns="" id="N24" cx="60.53355909516679" cy="312.8431029149441" r="1" style="transform-origin:60.53355909516679px 312.8431029149441px" class="elevator studentUnion"/><circle xmlns="" id="N25" cx="58.215038097119134" cy="324.86906356188706" r="1" style="transform-origin:58.215038097119134px 324.86906356188706px" class="elevator studentUnion"/><circle xmlns="" id="N26" cx="53.56539544417511" cy="327.68764808842644" r="1" style="transform-origin:53.56539544417511px 327.68764808842644px" class="staircase studentUnion"/><circle xmlns="" id="N27" cx="121.91136224933715" cy="282.33316163590837" r="1" style="transform-origin:121.91136224933715px 282.33316163590837px" class="intersection noBuilding"/><circle xmlns="" id="N28" cx="166.3916835665873" cy="255.96703409876537" r="1" style="transform-origin:166.3916835665873px 255.96703409876537px" class="intersection medicalSciences"/><circle xmlns="" id="N29" cx="159.20930873663252" cy="254.47367878828194" r="1" style="transform-origin:159.20930873663252px 254.47367878828194px" class="staircase medicalSciences"/><circle xmlns="" id="N30" cx="161.85544683065385" cy="236.3160605746596" r="1" style="transform-origin:161.85544683065385px 236.3160605746596px" class="intersection medicalSciences"/><circle xmlns="" id="N31" cx="170.09627689857524" cy="235.48531987220417" r="1" style="transform-origin:170.09627689857524px 235.48531987220417px" class="elevator medicalSciences"/><circle xmlns="" id="N32" cx="203.47541887312894" cy="228.6020397647395" r="1" style="transform-origin:203.47541887312894px 228.6020397647395px" class="staircase medicalSciences"/><circle xmlns="" id="N33" cx="204.84889055201114" cy="233.99196456172075" r="1" style="transform-origin:204.84889055201114px 233.99196456172075px" class="intersection medicalSciences"/><circle xmlns="" id="N34" cx="213.30393179889563" cy="234.4864530746186" r="1" style="transform-origin:213.30393179889563px 234.4864530746186px" class="staircase medicalSciences"/><circle xmlns="" id="N35" cx="208.44007796698855" cy="244.10919954624984" r="1" style="transform-origin:208.44007796698855px 244.10919954624984px" class="intersection medicalSciences"/><circle xmlns="" id="N36" cx="199.6700202791885" cy="253.22756773459878" r="1" style="transform-origin:199.6700202791885px 253.22756773459878px" class="elevator medicalSciences"/><circle xmlns="" id="N37" cx="237.3837884657706" cy="233.90295662896344" r="1" style="transform-origin:237.3837884657706px 233.90295662896344px" class="intersection noBuilding"/><circle xmlns="" id="N38" cx="254.60888740045516" cy="244.68280622222326" r="1" style="transform-origin:254.60888740045516px 244.68280622222326px" class="intersection biologicalSciencesII"/><circle xmlns="" id="N39" cx="257.98586363646945" cy="241.20160708765584" r="1" style="transform-origin:257.98586363646945px 241.20160708765584px" class="staircase biologicalSciencesII"/><circle xmlns="" id="N40" cx="305.52814475060893" cy="240.8752446684827" r="1" style="transform-origin:305.52814475060893px 240.8752446684827px" class="elevator biologicalSciencesII"/><circle xmlns="" id="N41" cx="311.1228367227184" cy="243.35757700616728" r="1" style="transform-origin:311.1228367227184px 243.35757700616728px" class="intersection biologicalSciencesII"/><circle xmlns="" id="N42" cx="324.6433423236243" cy="229.92726898079547" r="1" style="transform-origin:324.6433423236243px 229.92726898079547px" class="staircase biologicalSciencesI"/><circle xmlns="" id="N43" cx="352.11277588515304" cy="223.79561141411608" r="1" style="transform-origin:352.11277588515304px 223.79561141411608px" class="elevator biologicalSciencesI"/><circle xmlns="" id="N44" cx="348.63499438897685" cy="220.05727825236394" r="1" style="transform-origin:348.63499438897685px 220.05727825236394px" class="intersection diggsLaboratory"/><circle xmlns="" id="N45" cx="399.6550569975019" cy="225.2790769549178" r="1" style="transform-origin:399.6550569975019px 225.2790769549178px" class="elevator diggsLaboratory"/><circle xmlns="" id="N46" cx="409.38276466310674" cy="220.14628618512126" r="1" style="transform-origin:409.38276466310674px 220.14628618512126px" class="intersection diggsLaboratory"/><circle xmlns="" id="N47" cx="414.019806659202" cy="217.32770165858184" r="1" style="transform-origin:414.019806659202px 217.32770165858184px" class="staircase diggsLaboratory"/><circle xmlns="" id="N48" cx="400.1842846173805" cy="230.51076542715333" r="1" style="transform-origin:400.1842846173805px 230.51076542715333px" class="intersection diggsLaboratory"/><circle xmlns="" id="N49" cx="435.2645153667901" cy="237.05779334506045" r="1" style="transform-origin:435.2645153667901px 237.05779334506045px" class="intersection diggsLaboratory"/><circle xmlns="" id="N50" cx="440.7584020787377" cy="234.16009065614818" r="1" style="transform-origin:440.7584020787377px 234.16009065614818px" class="staircase diggsLaboratory"/><circle xmlns="" id="N51" cx="341.33921364022086" cy="189.87369939179868" r="1" style="transform-origin:341.33921364022086px 189.87369939179868px" class="staircase biologicalSciencesI"/><circle xmlns="" id="N52" cx="329.6206020743327" cy="177.936746677613" r="1" style="transform-origin:329.6206020743327px 177.936746677613px" class="intersection noBuilding"/><circle xmlns="" id="N53" cx="360.4670118718757" cy="153.39033687012656" r="1" style="transform-origin:360.4670118718757px 153.39033687012656px" class="staircase fawcettHall"/><circle xmlns="" id="N54" cx="377.8937213286745" cy="148.000412073848" r="1" style="transform-origin:377.8937213286745px 148.000412073848px" class="intersection fawcettHall"/><circle xmlns="" id="N55" cx="395.5346419644365" cy="132.08777171079166" r="1" style="transform-origin:395.5346419644365px 132.08777171079166px" class="staircase fawcettHall"/><circle xmlns="" id="N56" cx="401.0285286763841" cy="129.02194292745196" r="1" style="transform-origin:401.0285286763841px 129.02194292745196px" class="elevator fawcettHall"/><circle xmlns="" id="N57" cx="405.6781713293281" cy="131.42515710276368" r="1" style="transform-origin:405.6781713293281px 131.42515710276368px" class="intersection fawcettHall"/><circle xmlns="" id="N58" cx="419.09787167007215" cy="145.02359122256289" r="1" style="transform-origin:419.09787167007215px 145.02359122256289px" class="staircase fawcettHall"/><circle xmlns="" id="N59" cx="449.94428146761516" cy="159.03739569358981" r="1" style="transform-origin:449.94428146761516px 159.03739569358981px" class="elevator libraryAnnex"/><circle xmlns="" id="N60" cx="455.00974582163667" cy="161.85598022012925" r="1" style="transform-origin:455.00974582163667px 161.85598022012925px" class="staircase libraryAnnex"/><circle xmlns="" id="N61" cx="475.0825933724568" cy="149.16740496515828" r="1" style="transform-origin:475.0825933724568px 149.16740496515828px" class="intersection libraryAnnex"/><circle xmlns="" id="N62" cx="502.6654328527867" cy="187.312248892444" r="1" style="transform-origin:502.6654328527867px 187.312248892444px" class="intersection libraryAnnex"/><circle xmlns="" id="N63" cx="497.80157901908893" cy="189.87369939179868" r="1" style="transform-origin:497.80157901908893px 189.87369939179868px" class="staircase libraryAnnex"/><circle xmlns="" id="N64" cx="488.930716071127" cy="135.32172658926152" r="1" style="transform-origin:488.930716071127px 135.32172658926152px" class="elevator dunbarLibrary"/><circle xmlns="" id="N65" cx="501.92199405394496" cy="132.99763057561995" r="1" style="transform-origin:501.92199405394496px 132.99763057561995px" class="intersection dunbarLibrary"/><circle xmlns="" id="N66" cx="511.22127935983303" cy="132.82950448119252" r="1" style="transform-origin:511.22127935983303px 132.82950448119252px" class="staircase dunbarLibrary"/><circle xmlns="" id="N67" cx="534.5702978865056" cy="157.87040280227953" r="1" style="transform-origin:534.5702978865056px 157.87040280227953px" class="staircase dunbarLibrary"/><circle xmlns="" id="N68" cx="548.8342422862534" cy="161.2724837744741" r="1" style="transform-origin:548.8342422862534px 161.2724837744741px" class="intersection dunbarLibrary"/><circle xmlns="" id="N69" cx="595.8346951236654" cy="172.3786957862043" r="1" style="transform-origin:595.8346951236654px 172.3786957862043px" class="intersection creativeArtsCenter"/><circle xmlns="" id="N70" cx="640" cy="174.45554754304558" r="1" style="transform-origin:640px 174.45554754304558px" class="intersection creativeArtsCenter"/><circle xmlns="" id="N71" cx="555.7016006770832" cy="212.18502111840084" r="1" style="transform-origin:555.7016006770832px 212.18502111840084px" class="intersection creativeArtsCenter"/><circle xmlns="" id="N72" cx="622.144868185275" cy="238.30390439874358" r="1" style="transform-origin:622.144868185275px 238.30390439874358px" class="intersection creativeArtsCenter"/><circle xmlns="" id="N73" cx="509.6335965037784" cy="122.46502523916041" r="1" style="transform-origin:509.6335965037784px 122.46502523916041px" class="elevator dunbarLibrary"/><circle xmlns="" id="N74" cx="521.0497922855998" cy="120.81343360463401" r="1" style="transform-origin:521.0497922855998px 120.81343360463401px" class="intersection dunbarLibrary"/><circle xmlns="" id="N75" cx="530.0214604955141" cy="108.12485834966306" r="1" style="transform-origin:530.0214604955141px 108.12485834966306px" class="staircase dunbarLibrary"/><circle xmlns="" id="N76" cx="484.8103010380617" cy="98.67023797245925" r="1" style="transform-origin:484.8103010380617px 98.67023797245925px" class="intersection noBuilding"/><circle xmlns="" id="N77" cx="499.275855958133" cy="89.63098794648315" r="1" style="transform-origin:499.275855958133px 89.63098794648315px" class="intersection motionPictures"/><circle xmlns="" id="N78" cx="503.72388809075335" cy="87.1486556095013" r="1" style="transform-origin:503.72388809075335px 87.1486556095013px" class="staircase motionPictures"/><circle xmlns="" id="N79" cx="464.42243704632585" cy="95.35716493231928" r="1" style="transform-origin:464.42243704632585px 95.35716493231928px" class="intersection noBuilding"/><circle xmlns="" id="N80" cx="450.68772026466627" cy="98.04718244526632" r="1" style="transform-origin:450.68772026466627px 98.04718244526632px" class="staircase fawcettHall"/><circle xmlns="" id="N81" cx="387.7222342544412" cy="53.483877613665896" r="1" style="transform-origin:387.7222342544412px 53.483877613665896px" class="intersection millettHall"/><circle xmlns="" id="N82" cx="406.9508377462579" cy="38.4712063457561" r="1" style="transform-origin:406.9508377462579px 38.4712063457561px" class="staircase millettHall"/><circle xmlns="" id="N83" cx="413.6039849581246" cy="39.964561656239525" r="1" style="transform-origin:413.6039849581246px 39.964561656239525px" class="exit millettHall"/><circle xmlns="" id="N84" cx="372.2990293547744" cy="43.940249304407494" r="1" style="transform-origin:372.2990293547744px 43.940249304407494px" class="intersection millettHall"/><circle xmlns="" id="N85" cx="363.52897166876505" cy="49.33017410138876" r="1" style="transform-origin:363.52897166876505px 49.33017410138876px" class="intersection millettHall"/><circle xmlns="" id="N86" cx="365.11665452481964" cy="42.041413413080804" r="1" style="transform-origin:365.11665452481964px 42.041413413080804px" class="elevator millettHall"/><circle xmlns="" id="N87" cx="362.47051643079834" cy="38.144843927285685" r="1" style="transform-origin:362.47051643079834px 38.144843927285685px" class="intersection millettHall"/><circle xmlns="" id="N88" cx="359.5093618940708" cy="41.78427938589608" r="1" style="transform-origin:359.5093618940708px 41.78427938589608px" class="staircase millettHall"/><circle xmlns="" id="N89" cx="358.56431257490544" cy="33.417533738332416" r="1" style="transform-origin:358.56431257490544px 33.417533738332416px" class="intersection millettHall"/><circle xmlns="" id="N90" cx="388.5664783134448" cy="14.844545173482363" r="1" style="transform-origin:388.5664783134448px 14.844545173482363px" class="exit millettHall"/><circle xmlns="" id="N91" cx="327.07526924047323" cy="14.587411146297637" r="1" style="transform-origin:327.07526924047323px 14.587411146297637px" class="intersection millettHall"/><circle xmlns="" id="N92" cx="345.8880510330031" cy="6.883280106761972" r="1" style="transform-origin:345.8880510330031px 6.883280106761972px" class="elevator millettHall"/><circle xmlns="" id="N93" cx="350.7393042080614" cy="3.9756876481679733" r="1" style="transform-origin:350.7393042080614px 3.9756876481679733px" class="staircase millettHall"/><circle xmlns="" id="N94" cx="348.42078321001384" cy="0" r="1" style="transform-origin:348.42078321001384px 0px" class="exit millettHall"/><circle xmlns="" id="N95" cx="264.75241676713745" cy="22.96404656424574" r="1" style="transform-origin:264.75241676713745px 22.96404656424574px" class="intersection allynHall"/><circle xmlns="" id="N96" cx="238.656454884491" cy="28.27485319885415" r="1" style="transform-origin:238.656454884491px 28.27485319885415px" class="staircase allynHall"/><circle xmlns="" id="N97" cx="230.30221889776837" cy="34.327392603160696" r="1" style="transform-origin:230.30221889776837px 34.327392603160696px" class="elevator allynHall"/><circle xmlns="" id="N98" cx="210.4435825241206" cy="44.691871845192786" r="1" style="transform-origin:210.4435825241206px 44.691871845192786px" class="staircase allynHall"/><circle xmlns="" id="N99" cx="231.78909649366116" cy="65.83620067978198" r="1" style="transform-origin:231.78909649366116px 65.83620067978198px" class="intersection noBuilding"/><circle xmlns="" id="N100" cx="148.43574648990972" cy="85.07180385266003" r="1" style="transform-origin:148.43574648990972px 85.07180385266003px" class="intersection rikeHall"/><circle xmlns="" id="N101" cx="147.59150243090616" cy="79.85000515080891" r="1" style="transform-origin:147.59150243090616px 79.85000515080891px" class="staircase rikeHall"/><circle xmlns="" id="N102" cx="137.1329566268896" cy="78.35664984032549" r="1" style="transform-origin:137.1329566268896px 78.35664984032549px" class="intersection rikeHall"/><circle xmlns="" id="N103" cx="104.38384753237642" cy="58.87380241064715" r="1" style="transform-origin:104.38384753237642px 58.87380241064715px" class="intersection rikeHall"/><circle xmlns="" id="N104" cx="89.27565907362519" cy="68.23941485509367" r="1" style="transform-origin:89.27565907362519px 68.23941485509367px" class="intersection rikeHall"/><circle xmlns="" id="N105" cx="89.47726959573953" cy="73.21396930014451" r="1" style="transform-origin:89.47726959573953px 73.21396930014451px" class="staircase rikeHall"/><circle xmlns="" id="N106" cx="122.75560630834072" cy="87.89038837919944" r="1" style="transform-origin:122.75560630834072px 87.89038837919944px" class="intersection rikeHall"/><circle xmlns="" id="N107" cx="135.11685141111815" cy="84.99268569028717" r="1" style="transform-origin:135.11685141111815px 84.99268569028717px" class="elevator rikeHall"/><circle xmlns="" id="N108" cx="124.65830560531094" cy="94.11105387863611" r="1" style="transform-origin:124.65830560531094px 94.11105387863611px" class="staircase rikeHall"/><circle xmlns="" id="N109" cx="132.69752515290867" cy="95.02091274346441" r="1" style="transform-origin:132.69752515290867px 95.02091274346441px" class="intersection rikeHall"/><circle xmlns="" id="N110" cx="76.27178043395853" cy="128.39888740096174" r="1" style="transform-origin:76.27178043395853px 128.39888740096174px" class="intersection universityHall"/><circle xmlns="" id="N111" cx="75.01171467387752" cy="123.2166477799457" r="1" style="transform-origin:75.01171467387752px 123.2166477799457px" class="staircase universityHall"/><circle xmlns="" id="N112" cx="70.3620720209335" cy="125.78798804968484" r="1" style="transform-origin:70.3620720209335px 125.78798804968484px" class="intersection universityHall"/><circle xmlns="" id="N113" cx="15.851627257592968" cy="100.07458535088809" r="1" style="transform-origin:15.851627257592968px 100.07458535088809px" class="intersection universityHall"/><circle xmlns="" id="N114" cx="9.929318185928551" cy="98.83836406688668" r="1" style="transform-origin:9.929318185928551px 98.83836406688668px" class="staircase universityHall"/><circle xmlns="" id="N115" cx="58.000826918156065" cy="138.55568146702862" r="1" style="transform-origin:58.000826918156065px 138.55568146702862px" class="elevator universityHall"/><circle xmlns="" id="N116" cx="32.53489791555012" cy="149.75090141151617" r="1" style="transform-origin:32.53489791555012px 149.75090141151617px" class="staircase universityHall"/><circle xmlns="" id="N117" cx="40.04488984326918" cy="149.66189347875886" r="1" style="transform-origin:40.04488984326918px 149.66189347875886px" class="intersection universityHall"/><circle xmlns="" id="N118" cx="48.81494752927858" cy="154.97270011336727" r="1" style="transform-origin:48.81494752927858px 154.97270011336727px" class="intersection universityHall"/><circle xmlns="" id="N119" cx="6.552341949914253" cy="167.07777892198035" r="1" style="transform-origin:6.552341949914253px 167.07777892198035px" class="elevator studentSuccessCenter"/><circle xmlns="" id="N120" cx="0.42842235792615346" cy="173.0413103942323" r="1" style="transform-origin:0.42842235792615346px 173.0413103942323px" class="staircase studentSuccessCenter"/><circle xmlns="" id="N121" cx="0" cy="167.74039353000836" r="1" style="transform-origin:0px 167.74039353000836px" class="intersection studentSuccessCenter"/><circle xmlns="" id="N122" cx="83.78177236167758" cy="174.45554754304558" r="1" style="transform-origin:83.78177236167758px 174.45554754304558px" class="intersection noBuilding"/><circle xmlns="" id="N123" cx="128.99293181913006" cy="216.8233233745968" r="1" style="transform-origin:128.99293181913006px 216.8233233745968px" class="intersection noBuilding"/><circle xmlns="" id="N124" cx="334.68606642835414" cy="129.84279386022567" r="1" style="transform-origin:334.68606642835414px 129.84279386022567px" class="intersection oelmanHall"/><circle xmlns="" id="N125" cx="335.4295052271959" cy="135.15360049413138" r="1" style="transform-origin:335.4295052271959px 135.15360049413138px" class="staircase oelmanHall"/><circle xmlns="" id="N126" cx="273.8374908940624" cy="165.83166786829722" r="1" style="transform-origin:273.8374908940624px 165.83166786829722px" class="intersection brehmLaboratory"/><circle xmlns="" id="N127" cx="232.84755173162782" cy="151.8178633972703" r="1" style="transform-origin:232.84755173162782px 151.8178633972703px" class="staircase brehmLaboratory"/><circle xmlns="" id="N128" cx="227.9836978997207" cy="148.9597197898958" r="1" style="transform-origin:227.9836978997207px 148.9597197898958px" class="elevator brehmLaboratory"/><circle xmlns="" id="N129" cx="227.45447027984204" cy="143.56979499291452" r="1" style="transform-origin:227.45447027984204px 143.56979499291452px" class="intersection mathAndMicrobiology"/><circle xmlns="" id="N130" cx="167.3493335426014" cy="186.02657875722304" r="1" style="transform-origin:167.3493335426014px 186.02657875722304px" class="staircase mathAndMicrobiology"/><circle xmlns="" id="N131" cx="158.05004823671337" cy="186.35294117639617" r="1" style="transform-origin:158.05004823671337px 186.35294117639617px" class="intersection mathAndMicrobiology"/><circle xmlns="" id="N132" cx="304.78470595176725" cy="112.06098691629326" r="1" style="transform-origin:304.78470595176725px 112.06098691629326px" class="intersection oelmanHall"/><circle xmlns="" id="N133" cx="287.35799649496835" cy="123.50345111758105" r="1" style="transform-origin:287.35799649496835px 123.50345111758105px" class="intersection oelmanHall"/><circle xmlns="" id="N134" cx="296.01464826396716" cy="111.5664984033954" r="1" style="transform-origin:296.01464826396716px 111.5664984033954px" class="elevator oelmanHall"/><circle xmlns="" id="N135" cx="282.49414266306127" cy="97.96806428359618" r="1" style="transform-origin:282.49414266306127px 97.96806428359618px" class="intersection oelmanHall"/><circle xmlns="" id="N136" cx="269.40205942008146" cy="95.72308643232748" r="1" style="transform-origin:269.40205942008146px 95.72308643232748px" class="staircase oelmanHall"/><circle xmlns="" id="N137" cx="167.37453485808956" cy="260.0218399093062" r="1" style="transform-origin:167.37453485808956px 260.0218399093062px" class="staircase medicalSciences"/></g></g></svg>
